/* XPM */
static char *bitcoin64[] = {
/* columns rows colors chars-per-pixel */
"48 48 256 2 ",
"   c #010102",
".  c #0A0403",
"X  c #01030A",
"o  c #030A0C",
"O  c #0B0B0C",
"+  c #090709",
"@  c #1B0000",
"#  c #140B03",
"$  c #130C0B",
"%  c #190A05",
"&  c #1B1606",
"*  c #010111",
"=  c #030D11",
"-  c #0E1212",
";  c #081818",
":  c #131414",
">  c #1B1C1C",
",  c #171818",
"<  c #190610",
"1  c #270605",
"2  c #380405",
"3  c #261609",
"4  c #391A05",
"5  c #271917",
"6  c #381A1A",
"7  c #3B2B03",
"8  c #29250B",
"9  c #1A2727",
"0  c #1C3030",
"q  c #242424",
"w  c #252B2B",
"e  c #2C2D2D",
"r  c #2E2624",
"t  c #352A29",
"y  c #283336",
"u  c #333A3B",
"i  c #3C3C3C",
"p  c #383534",
"a  c #3D342E",
"s  c #4B0204",
"d  c #590303",
"f  c #471D05",
"g  c #461D1D",
"h  c #531C16",
"j  c #640101",
"k  c #6C0202",
"l  c #6C0B01",
"z  c #770404",
"x  c #661B1B",
"c  c #771818",
"v  c #74110C",
"b  c #472604",
"n  c #592905",
"m  c #493706",
"M  c #553A06",
"N  c #513712",
"B  c #662A05",
"V  c #693408",
"C  c #763504",
"Z  c #702E00",
"A  c #472929",
"S  c #572929",
"D  c #443B3C",
"F  c #493B3B",
"G  c #583C3C",
"H  c #49382A",
"J  c #682727",
"K  c #782826",
"L  c #663535",
"P  c #7A393A",
"I  c #753636",
"U  c #6B2D32",
"Y  c #584404",
"T  c #624504",
"R  c #775604",
"E  c #785B1E",
"W  c #67510F",
"Q  c #7C6311",
"!  c #4D412A",
"~  c #544636",
"^  c #56462D",
"/  c #675237",
"(  c #6F5724",
")  c #353A4C",
"_  c #7E3F44",
"`  c #3D4443",
"'  c #384647",
"]  c #3C4255",
"[  c #444444",
"{  c #4B4C4C",
"}  c #464748",
"|  c #534C4C",
" . c #564747",
".. c #454B55",
"X. c #4A5558",
"o. c #545454",
"O. c #5B5353",
"+. c #5B5C5C",
"@. c #565B5A",
"#. c #53504C",
"$. c #684545",
"%. c #794848",
"&. c #645A4E",
"*. c #695656",
"=. c #7B5858",
"-. c #656558",
";. c #766C56",
":. c #565B66",
">. c #495267",
",. c #4D6565",
"<. c #586566",
"1. c #5A6878",
"2. c #646464",
"3. c #656A6A",
"4. c #6C6C6C",
"5. c #676664",
"6. c #796969",
"7. c #767469",
"8. c #686C77",
"9. c #6C7272",
"0. c #647B7B",
"q. c #747474",
"w. c #757A7B",
"e. c #7B7C7B",
"r. c #767577",
"t. c #67706E",
"y. c #5C6061",
"u. c #850804",
"i. c #9A1206",
"p. c #891515",
"a. c #931310",
"s. c #AB1606",
"d. c #853B01",
"f. c #983B04",
"g. c #9D2A0D",
"h. c #B63200",
"j. c #901E22",
"k. c #852525",
"l. c #982A28",
"z. c #833C3C",
"x. c #873737",
"c. c #963A3A",
"v. c #A93434",
"b. c #CD2800",
"n. c #C51B00",
"m. c #984402",
"M. c #8C5307",
"N. c #A64903",
"B. c #B04E04",
"V. c #866607",
"C. c #986805",
"Z. c #9C7304",
"A. c #86671D",
"S. c #A37301",
"D. c #A87A03",
"F. c #B27C03",
"G. c #8A5630",
"H. c #947C35",
"J. c #CE4D01",
"K. c #AC3E40",
"L. c #8B4343",
"P. c #854848",
"I. c #994949",
"U. c #885858",
"Y. c #965959",
"T. c #A84343",
"R. c #B74E4E",
"E. c #A65757",
"W. c #B85757",
"Q. c #866666",
"!. c #946363",
"~. c #986A6A",
"^. c #877A7A",
"/. c #997878",
"(. c #A56465",
"). c #BA6A6A",
"_. c #A67676",
"`. c #B77777",
"'. c #936F57",
"]. c #C65959",
"[. c #C76767",
"{. c #C77979",
"}. c #D26C6C",
"|. c #E47676",
" X c #AE8603",
".X c #B98802",
"XX c #BF9615",
"oX c #B08D34",
"OX c #BCA01E",
"+X c #C98A03",
"@X c #C79603",
"#X c #D0920A",
"$X c #D6A303",
"%X c #C49225",
"&X c #E0960F",
"*X c #988853",
"=X c #A78444",
"-X c #928F72",
";X c #A29772",
":X c #777A83",
">X c #697185",
",X c #857F82",
"<X c #7D8586",
"1X c #7D8C96",
"2X c #838585",
"3X c #848C8C",
"4X c #8A8A8A",
"5X c #8A8B85",
"6X c #978585",
"7X c #8B9395",
"8X c #949595",
"9X c #95999A",
"0X c #9D9D9D",
"qX c #999495",
"wX c #8C8D93",
"eX c #AB8D8D",
"rX c #A48989",
"tX c #B78989",
"yX c #A79898",
"uX c #B89999",
"iX c #869CA7",
"pX c #9EA5A5",
"aX c #A4A4A4",
"sX c #ADA5A5",
"dX c #ABACAC",
"fX c #A3AAAB",
"gX c #B7A7A7",
"hX c #ADB4B5",
"jX c #B8B6B6",
"kX c #AEA298",
"lX c #C48989",
"zX c #C89696",
"xX c #DA9696",
"cX c #D68888",
"vX c #E68C8C",
"bX c #E79999",
"nX c #C9A9A9",
"mX c #D6A8A8",
"MX c #C7B6B6",
"NX c #D7B6B6",
"BX c #E8BBBB",
"VX c #E7A2A2",
"CX c #CA9FA0",
"ZX c #B9BCC1",
"AX c #BAC5C5",
"SX c #C9C8C9",
"DX c #DCC5C5",
"FX c #D4D5D5",
"GX c #CBD4D7",
"HX c #E9C8C8",
"JX c #E9D4D4",
"KX c #F4D9D9",
"LX c #F1C6C6",
"PX c #E5E6E6",
"IX c #F3F5F5",
"UX c None",
/* pixels */
"UXUXUXUXUXUXUXUXUXUXUXUXUXUXUXUXUXUXc.SXI.CX/.E.jXc.nXeXT.yX .UXUXUXUXUXUXUXUXUXUXUXUXUXUXUXUXUX",
"UXUXUXUXUXUXUXUXUXUXUXUXUXUXUX!.{.yXY.zXlXVXmXcXDX}.LXlX{.yXI.NX/.UXUXUXUXUXUXUXUXUXUXUXUXUXUXUX",
"UXUXUXUXUXUXUXUXUXUXUXUXUXY.gX_.{.HX).zX=.$.F a t A O.U gX).vXDXE.tXuXS UXUXUXUXUXUXUXUXUXUXUXUX",
"UXUXUXUXUXUXUXUXUXUXUXI.MX_.cXHXP *.%   - : q w e w - -   . X.U {.KX!.`.gXUXUXUXUXUXUXUXUXUXUXUX",
"UXUXUXUXUXUXUXUXUXL SXY.vXJXJ i + , > { fX0XpX5X3XdX2X2.w.2.> o 9 g [.KX~.W.6.UXUXUXUXUXUXUXUXUX",
"UXUXUXUXUXUXUXUX4Xc.lXJXK `   - e.dXw.r.6.5 %.!.L I Q.-.r.pX8Xw.i O 0  .[.mX/.x.UXUXUXUXUXUXUXUX",
"UXUXUXUXUXUXUXz.gXNXR.<X  > r X +.6XL.k.l.K.k.d K R.T.p.k I =.e.fX2Xe + y.uX[.uXaXUXUXUXUXUXUXUX",
"UXUXUXUXUXUX0X!.}.JX3   e w.o.@ v u.s $.0X3X..X.<XiX-.Y G.(.K.j.!.5XhXy.    uXJXP.E.UXUXUXUXUXUX",
"UXUXUXUXUXP _.KXY.6   q 8. .x.v.Y.' X.<XwX2.| 2X8X8.E @X;XiX<.n u.c.rXi - : ; K |.gX^.UXUXUXUXUX",
"UXUXUXUXUXgX`.cX,.O { [ U.l.W.3X,.y.5X3Xq.o.4.2X3X&.S.oX3X<X( D.*X(.p.1 { 8X> $ dXzXI.I UXUXUXUX",
"UXUXUXUXc.lXJX1 o e.9X!.z %.1Xt.D 4.2X^.o.o.2X2X8.E  X*X1X@.C.%X6X1.N a.L.8Xe.>   [.CXjXUXUXUXUX",
"UXUXUX0X6X].6X; 5.<X!.j H 0.e.#.{ e.e.q.[ 5.4Xw.&.S.oXe.8.( @X*X>X/ F.=Xj.z.pX3X$ ,.CXI.E.UXUXUX",
"UXUXUXE.HXkX  @.dX$.z A <.e.5.[ 9.q.q.@.O.e.r.3.E +X*X>XO.Z.OXe.:.M.&X-Xr.j.%.w.+.  K VXjXUXUXUX",
"UXUXdX/.].9.> o.| k S ,.r.4.{ o.e.q.5.[ 4.2X8.#.N.%Xr.1.( @X*X1.^ +X=Xr.:.f i. .w., 0 gX!.c.UXUX",
"UXUX`.HX/.  w.w.x c X.9.4.+.D 5.q.5.| } r.9.:.E .X*X8.{ C.XX7.X.M.#X7.8.H d.g.c r i + x xXMXUXUX",
"UX8X!.].4.  { 6.p.F t.2.2.} } 9.2.+.[ 4.e.:.#. XXX2.:.^ #X=X:.! .XH.3.X.C B.7.j.L r.e 0 nX!.P.UX",
"UXuXDXtX  w i x.v ,.r.+.o.D 4.5.+.} } e.3...E @XH.>.[ C.#X5.] M.+X;.:.H m.G.<.%.T.y.{   x.{.zXUX",
"UXx.[.qX> 9X^.p.F t.+.o.D { r.@.o.i y.5.o.[ S.OX+.>.^ .XH.>.! .XH.+.{ V N.*.:.p z /.e.X +.NX~.UX",
"5.yXCXg ..fXS v ,.4.#.{ } 9.+.o.[ [ 4.+...( .XH.>.` Z.XX-.] V.#X;...a f.G.o...m i.Y.wXp . [.E.z.",
"z.Y.NXu +.4Xx x ,.{ i e i 5.i i e | o.i t R S. .) m C.A.' a S.A.[ y n m.G ` r Z f.c 3X2XX nXeXfX",
"dXtX(.3 3.5.c 5 q.0XaX8X5.i q.+.8X0X8X2Xa ! ;X9X9X5X/ 5.} & 7 -.y.5./ rX0X8XqXkXG k | [   P.`.c.",
"_.CXMX- r.O.d t PXjXdXSXFXq.SXaXIXqXqXSXhXwXGX8XqXSX3XjXq.    aXyXSX:X7XSXIXSXjX0 k @     6.VXMX",
"U.`.Y., jX^.s [ IX>   > @.7.FXfXaX} 0XjXaXjX5X    > [ SX4.    0X0XFX+.  q PX[ +   k A 4.O ~ zXU.",
"jXNXrX: 2XO.d ` PX      , +.SXdX0Xi PXFXe aXdX> > | O.SX4X> q jXaXFX+.  : PXi     d G aX-  .bX).",
"x.{.~.+ $   d i IX<Xt.<XAX<XGXpX9X  ' ZX<.0.GXfXfXGX<X1XAXfXfXGX9.FX<.  > IX'     j =.8X: F NXsX",
"aXCXeX    5 k , eXmXMXnXeX$.eX$.~ 1 1 ~ $.6 =.~.Q.=.g A Q.~.^.@.w eX$.@ 1 gXg @   k ^.2X; %.[.c.",
"~.`.tX. : +.v 1 P.(.Y.(.P U I.P P U._ x J P L U I I _ P I I A d u.z.I %.P.Y.L.I 1 z O.4.O 6.DXMX",
"~._.tXq [ q.c g [ F t F p t D D D  . .D D D a F | } | F F p y a.i.A i | *.[ } i 5 j D r.O E.).~.",
"^.eXCXa @.fXP d ' > o o w ` -   & V.Y o o m R & X m V.8     B n 1 O 4 C & X o m i.K +.o.o DX`.L.",
"S z.{.$.u jX6.p.y.O   o o.o.    T @X7   % .XD.. . D.D.#   4 B.f     B d.%   # m.n.U.q.u 5 [.^.r.",
"UXdXmXCX+ o.8.j.h     r 5.>   &  XC.    T @Xm   M $XY   . d.d.%   3 B.f     b h.i.2X<X- 2XvXI.UX",
"UXY._.E.5 w +.1 z   O +.y.    Y +X7   # S.Z.. .  X X#   f B.f     C m.%   # m.n.L.aXt.  I.MXMXUX",
"UX*.~.DX6X- 8X[ j 2 0 4.q   & F.Z.X   Y +XM   m $XR   + m.m.O X % m.n     b J.u.*.fX> X.vXP.*.UX",
"UXUXeX`.E.> 3.4X@ z O.X.    V #Xb   & S.D.+   C..X&   4 N.b     Z f.% X # m.b.@ :Xe.  z.HXnXUXUX",
"UXUX$.Q.JXyXO aX2XU l.w   % D.F.X   T $XM X 7 +XR X X d.m.& X 1 N.n +   b h.p., e , 0.vXP.^.UXUX",
"UXUXUXsX`.R.r ' 0X5.c d X M &Xm X #  X XO   C..X& X 4 N.n X X Z N.3 X - s.u.p 0X> . (.DXtXUXUXUX",
"UXUXUXS P.HXSX@ { 9.r v l F.F.+ X m @XW X b #XR * + d.m.3 * 3 N.Z = o l a.*.t.4.. fX}.P.-XUXUXUX",
"UXUXUXUXaX/.[.%.0 @.:X$ l J.V * # V.Z.- X R  X8 * 4 B.V o X Z N.3 o j k 6.3X3.; s mXuXE.UXUXUXUX",
"UXUXUXUXUXc.eXKXP.. i   O J k s m  XT * 7 +XQ * + C B.5 * & m.M 2 j x *.pX4.+ { LXE./.UXUXUXUXUX",
"UXUXUXUXUXX.yX(.{.9XO + w.7X$.d g.J.5 o V..X8 * 4 N.M ; o n h.i.c g r.fX5.; *.R.MXzXg UXUXUXUXUX",
"UXUXUXUXUXUXg U.MXVXK y ' 2X3X0X$.K j z J.N.< < C B.h 2 d i.l.%.q.dX^.y $ h KX{.L.9.UXUXUXUXUXUX",
"UXUXUXUXUXUXUX2.~.Y.KXnX2 = u +.3.e.^.%.J c j k u.u.j x %.O.4.8X{ ` O . hX|._.jXS UXUXUXUXUXUXUX",
"UXUXUXUXUXUXUXUXUXaX6X].NXsX@ = ..9.0X8X8X9X-XD @ q u { sX} O u o   3X].BXrXc.| UXUXUXUXUXUXUXUX",
"UXUXUXUXUXUXUXUXUXUXz.Q.gX[.lXkX2 , w w u ` w.X.  $ { 9 , O   @ 3XR.HXzXx.sXUXUXUXUXUXUXUXUXUXUX",
"UXUXUXUXUXUXUXUXUXUXUX3.Y.U.nX[.lXNXK | r % - O   O $ r G U nX].BXlXP.gXL UXUXUXUXUXUXUXUXUXUXUX",
"UXUXUXUXUXUXUXUXUXUXUXUXUX2X/.L.sX).zXLX].DX).tXtX`.CX{.BX{.nX_.U.sXI UXUXUXUXUXUXUXUXUXUXUXUXUX",
"UXUXUXUXUXUXUXUXUXUXUXUXUXUXUX2.6Xx.qX!.~.uX(.nX`.uXtXY.eXI.6X~.G UXUXUXUXUXUXUXUXUXUXUXUXUXUXUX",
"UXUXUXUXUXUXUXUXUXUXUXUXUXUXUXUXUXUXUXL 6X/.z.sXL.6X_.P.q.UXUXUXUXUXUXUXUXUXUXUXUXUXUXUXUXUXUXUX"
};
