/* XPM */
static char *bitcoin32[] = {
/* columns rows colors chars-per-pixel */
"32 32 256 2 ",
"   c #010102",
".  c #0B0502",
"X  c #01030C",
"o  c #040A0A",
"O  c #0B0B0B",
"+  c #090908",
"@  c #120300",
"#  c #120C06",
"$  c #180C07",
"%  c #1E150B",
"&  c #1A1405",
"*  c #000412",
"=  c #0C1111",
"-  c #1B1414",
";  c #1A1D1D",
":  c #12181A",
">  c #250604",
",  c #3D0202",
"<  c #271C00",
"1  c #261B1B",
"2  c #371819",
"3  c #3B1205",
"4  c #292207",
"5  c #3B2A05",
"6  c #2A261C",
"7  c #181B21",
"8  c #222525",
"9  c #2A2323",
"0  c #2C2B2B",
"q  c #262D2D",
"w  c #332D2D",
"e  c #382726",
"r  c #2C3333",
"t  c #343333",
"y  c #3B3433",
"u  c #333A3A",
"i  c #3B3A3A",
"p  c #383538",
"a  c #460404",
"s  c #550201",
"d  c #590A0A",
"f  c #5E1500",
"g  c #461918",
"h  c #551819",
"j  c #690D06",
"k  c #6E1B0D",
"l  c #611314",
"z  c #661B19",
"x  c #751C16",
"c  c #741407",
"v  c #462705",
"b  c #5E2B04",
"n  c #473A0B",
"m  c #523903",
"M  c #593B03",
"N  c #4A281F",
"B  c #612B03",
"V  c #6A2B02",
"C  c #6D3406",
"Z  c #733304",
"A  c #783905",
"S  c #462B2B",
"D  c #55292A",
"F  c #42392C",
"G  c #4A3434",
"H  c #483939",
"J  c #543434",
"K  c #5D3736",
"L  c #593C25",
"P  c #6D2223",
"I  c #622C2D",
"U  c #682725",
"Y  c #782829",
"T  c #682E32",
"R  c #683738",
"E  c #72393A",
"W  c #7A3D3D",
"Q  c #703639",
"!  c #5D4708",
"~  c #755804",
"^  c #794800",
"/  c #48413B",
"(  c #524A3B",
")  c #594E3A",
"_  c #57453C",
"`  c #57432D",
"'  c #6A5426",
"]  c #6F4B32",
"[  c #6C5D3E",
"{  c #76473D",
"}  c #6F602F",
"|  c #7C6833",
" . c #383D4A",
".. c #354141",
"X. c #3A4042",
"o. c #434444",
"O. c #444C4C",
"+. c #4C4D4C",
"@. c #494649",
"#. c #584A48",
"$. c #4E504F",
"%. c #5E574A",
"&. c #464A56",
"*. c #4C5555",
"=. c #475254",
"-. c #545454",
";. c #5C5353",
":. c #535B5B",
">. c #5B5B5B",
",. c #56575B",
"<. c #634B4B",
"1. c #614545",
"2. c #794343",
"3. c #724C4C",
"4. c #7A4D4D",
"5. c #6A5556",
"6. c #7E5454",
"7. c #755959",
"8. c #775656",
"9. c #6D614A",
"0. c #62625D",
"q. c #736B48",
"w. c #565D64",
"e. c #4D556A",
"r. c #5C6465",
"t. c #5C6A6B",
"y. c #566163",
"u. c #5E6579",
"i. c #656565",
"p. c #6D6464",
"a. c #636D6C",
"s. c #6B6B6A",
"d. c #656769",
"f. c #786363",
"g. c #7C6A6E",
"h. c #746366",
"j. c #6F736B",
"k. c #74716E",
"l. c #6A7476",
"z. c #737474",
"x. c #717E7E",
"c. c #7B7B7B",
"v. c #797576",
"b. c #666D74",
"n. c #8F1D02",
"m. c #971F00",
"M. c #860C08",
"N. c #8B2600",
"B. c #8D3D03",
"V. c #813200",
"C. c #9D3700",
"Z. c #902214",
"A. c #8A2310",
"S. c #BA2C01",
"D. c #AA3303",
"F. c #842C2B",
"G. c #9B3A28",
"H. c #893735",
"J. c #983937",
"K. c #862F34",
"L. c #9B4503",
"P. c #954A03",
"I. c #984B14",
"U. c #A34E03",
"Y. c #8D640C",
"T. c #8A6507",
"R. c #966F02",
"E. c #966C08",
"W. c #997609",
"Q. c #95731F",
"!. c #876611",
"~. c #A57302",
"^. c #AD7A03",
"/. c #A77B01",
"(. c #B57903",
"). c #A7631D",
"_. c #9A7C22",
"`. c #834C4C",
"'. c #8A4949",
"]. c #855A5A",
"[. c #8A5F5F",
"{. c #945B5B",
"}. c #945758",
"|. c #8B4B4F",
" X c #8D6B51",
".X c #8C6D4B",
"XX c #866363",
"oX c #8A6363",
"OX c #836A6A",
"+X c #8B6B6B",
"@X c #996565",
"#X c #956969",
"$X c #916F74",
"%X c #887676",
"&X c #957373",
"*X c #997575",
"=X c #9D7C7C",
"-X c #A76A6B",
";X c #A16666",
":X c #B36F6F",
">X c #A37171",
",X c #AA7676",
"<X c #B37575",
"1X c #BB7A7A",
"2X c #B67A7A",
"3X c #C27D7D",
"4X c #CB7E7E",
"5X c #B68708",
"6X c #BD9008",
"7X c #B78615",
"8X c #A08614",
"9X c #998437",
"0X c #B18632",
"qX c #C19204",
"wX c #9D8F5F",
"eX c #A88A48",
"rX c #A5944A",
"tX c #86847C",
"yX c #7D7E81",
"uX c #707687",
"iX c #7C8284",
"pX c #798586",
"aX c #828282",
"sX c #858B8B",
"dX c #8C8B8C",
"fX c #82858C",
"gX c #948D8E",
"hX c #958F90",
"jX c #899496",
"kX c #9B9B9B",
"lX c #979595",
"zX c #AC8181",
"xX c #A68787",
"cX c #BD8383",
"vX c #BD8D8D",
"bX c #B38888",
"nX c #BD9393",
"mX c #B79191",
"MX c #9EA5A5",
"NX c #AAABAB",
"BX c #A3A7A8",
"VX c #ADAEB0",
"CX c #BBBBBB",
"ZX c #B3B3B4",
"AX c #C38484",
"SX c #CA8383",
"DX c #C38B8B",
"FX c #CB8B8B",
"GX c #C39393",
"HX c #C79B9B",
"JX c #D09898",
"KX c #D0A4A4",
"LX c #CCA4A4",
"PX c gray76",
"IX c #D2D2D2",
"UX c None",
/* pixels */
"UXUXUXUXUXUXUXUXUXUXUXUXUXUX7.].+X6.UXUXUXUXUXUXUXUXUXUXUXUXUXUX",
"UXUXUXUXUXUXUXUXUXUX].GX:X@X[.3.3.oX{.zXcXoXUXUXUXUXUXUXUXUXUXUX",
"UXUXUXUXUXUXUXUX&XAX*XS - ..O.=.*...r 0 t `.bX@XUXUXUXUXUXUXUXUX",
"UXUXUXUXUXUXUXHX@X9 7 x.r.%X8.#X`.+Xh.sXr.u 1 OX3XUXUXUXUXUXUXUX",
"UXUXUXUXUXUXJX<.; r $ {.F.'.}.h `.{.k H.}.gXpXq H 1Xf.UXUXUXUXUX",
"UXUXUXUXUXFXG o y.2.H.I @.jXi.b.jXq.8XgX2.A.-Xd.  0 1X7.UXUXUXUX",
"UXUXUXUXFXH r i.H.}.c.:.dXv.>.aXx.E.rXuX!.eX6.s p.*.9 cXUXUXUXUX",
"UXUXUX1Xf.u sXF.K iX$.d.tX-.b.yX[ 7XuX9.5XyX} ).J.hXo.H vXUXUXUX",
"UXUX4.mX- pXP D a.d.-.v.d.,.c.d.E.eXu.W.rXr.(.wX5.F.z.7 [.+XUXUX",
"UXUXLXG y.R z r.j.+.d.j.$.p.z.[ 7Xj.<.5Xk.' 7Xb.` Z.T u 1 cXUXUX",
"UX5.:X= -.F.;.a.,.+.s.>.$.c.,.W.9Xe.Y.0X&.~..X:.B..XF.i.8 oX4.UX",
"UX>Xh.*.6.U a.0./ d.0.@.r.r.) qX0.( 5X0.' 7Xy.L I.y.I }.O.e bXUX",
"UXHXy sXP <.:.i $.>.o./ :.O.T.Q. .T._.O.^..X..V.]  .V G.pX9 <XUX",
"UX<XH k.z -.aXv.-.,.>.tXyXi ' tXc.| %.1 ! >.@..X%Xk. Xl p.8 #XUX",
"UXzX@.v., BXdXdXkXBXPXlXkXCXBXyXz.fXVXO ; ZXNXr.ZXPXy.a 2 + *XUX",
"5.*X@.%X, BXo   0 VXCX,.IXc.NX9 = +.CX8 p CXNX  >.iX  , ]. .].3.",
"1.>XO @ , MXlXhXkXMXlX; +.z.k.NXNXv.c.NXNXx.NX  >.aX  a *X .6.7.",
"UXbXO y h R <X<X2.`.E E I I T Q E Q Q W D l `.I `.`.g a h.r &XUX",
"UXDXy z.z y t w w y w ( / w F F u ) y 0 N M.e _ / y e j ;.p -XUX",
"UX1XH jX'.K o   $.:   /.<   /.4 & /.. @ B.+ @ A .   C.G.t.9 bXUX",
"UXxX].q 5.d   0 -.  ! R.  m ~.  R.~   Z B   V B   v S.$Xy.#.,XUX",
"UXUXnXu t.d > :.8 . /.5   /.5 & qX# & L.. # B.$ . C.Z.jXr -X1.UX",
"UXUX1X5.b.<.x +.  M ~.  m /.  ~ ~   Z b   b V   v S.2 t.S vXUXUX",
"UXUX;.AXw jX4.d + (.v X 5Xn $ (.% & L.$ # L.% O m.U w.. vX3.UXUX",
"UXUXUXxX>Xw t.h N.~.X 5 /.* ~ T.X Z C * b Z o s J.l.i g.:XUXUXUX",
"UXUXUXUXGXXXi : g c > R.n # ^.4 $ U.% # P.3 s 2.jXu <.4XUXUXUXUX",
"UXUXUXUXUXDX+X  l.k.H.D.> ^ T.* Z A X f D.Y 7.pXu <.4XUXUXUXUXUX",
"UXUXUXUXUXUXcXmXe O.a.h.|.G.x d n.j P W g.a.:.- $XAXUXUXUXUXUXUX",
"UXUXUXUXUXUXUX{.KXR u O.uXl.yX0.X t ,.=.o 0 J FX,XUXUXUXUXUXUXUX",
"UXUXUXUXUXUXUXUXUXnX3X&XJ e w w O 9 9 S XXDXcX5.UXUXUXUXUXUXUXUX",
"UXUXUXUXUXUXUXUXUXUXUX#XnX1XHX2X1XDXAX1X=XUXUXUXUXUXUXUXUXUXUXUX",
"UXUXUXUXUXUXUXUXUXUXUXUXUXUXUXUXUXUXUXUXUXUXUXUXUXUXUXUXUXUXUXUX"
};
